<svg width="18" height="19" viewBox="0 0 18 19" fill="none" xmlns="http://www.w3.org/2000/svg">
<g clip-path="url(#clip0_585_248)">
<path d="M12.7266 0.5H5.27344C2.3625 0.5 0 2.8625 0 5.77344V13.2266C0 16.1375 2.3625 18.5 5.27344 18.5H12.7266C15.6375 18.5 18 16.1375 18 13.2266V5.77344C18 2.8625 15.6375 0.5 12.7266 0.5ZM6.89801 8.375H7.875V5.52734C7.875 5.23625 8.11125 5 8.40234 5H9.59766C9.88875 5 10.125 5.23625 10.125 5.52734V8.375H11.102C11.5717 8.375 11.8072 8.94312 11.475 9.27535L9.37301 11.3773C9.16699 11.5834 8.83301 11.5834 8.62734 11.3773L6.52535 9.27535C6.19313 8.94312 6.42832 8.375 6.89836 8.375H6.89801ZM12.375 13.4727C12.375 13.7638 12.1388 14 11.8477 14H6.15234C5.86125 14 5.625 13.7638 5.625 13.4727V12.8398C5.625 12.5487 5.86125 12.3125 6.15234 12.3125H11.8477C12.1388 12.3125 12.375 12.5487 12.375 12.8398V13.4727Z" fill="white"/>
</g>
<defs>
<clipPath id="clip0_585_248">
<rect width="18" height="18" fill="white" transform="translate(0 0.5)"/>
</clipPath>
</defs>
</svg>
